# xmcd
#
# Track frame offsets:
#	150
#	20787
#	38016
#	49933
#	63702
#	88260
#	107156
#	128571
#	146116
#	160972
#
# Disc length: 2485 seconds
#
# Revision: 0
# Processed by: cddbd v1.5.2PL0 Copyright (c) Steve Scherf et al.
# Submitted via: EasyCDDAExtractor 11.0.0.1
#
DISCID=9109b30a
DTITLE=Yolanda Adams - What A Wonderful Time
DYEAR=2007
DGENRE=Blues
TTITLE0=My Favorite Things
TTITLE1=Give Love on Christmas Day
TTITLE2=What A Wonderful Time
TTITLE3=Jingle Bells
TTITLE4=Do You Hear What I Hear
TTITLE5=A Season of Love
TTITLE6=Hold On
TTITLE7=Just Because
TTITLE8=Little Drummer Boy
TTITLE9=With God
EXTD=
EXTT0=
EXTT1=
EXTT2=
EXTT3=
EXTT4=
EXTT5=
EXTT6=
EXTT7=
EXTT8=
EXTT9=
PLAYORDER=
